<?xml version="1.0" encoding="UTF-8" standalone="no"?>
<svg
   viewBox="0 0 800 800"
   x="0px"
   y="0px"
   version="1.1"
   id="svg9"
   sodipodi:docname="noun-pig-3851380.svg"
   width="800"
   height="800"
   inkscape:version="1.3.2 (091e20e, 2023-11-25)"
   xmlns:inkscape="http://www.inkscape.org/namespaces/inkscape"
   xmlns:sodipodi="http://sodipodi.sourceforge.net/DTD/sodipodi-0.dtd"
   xmlns:xlink="http://www.w3.org/1999/xlink"
   xmlns="http://www.w3.org/2000/svg"
   xmlns:svg="http://www.w3.org/2000/svg"
   xmlns:rdf="http://www.w3.org/1999/02/22-rdf-syntax-ns#"
   xmlns:cc="http://creativecommons.org/ns#"
   xmlns:dc="http://purl.org/dc/elements/1.1/">
  <defs
     id="defs9">
    <inkscape:path-effect
       effect="fillet_chamfer"
       id="path-effect9"
       is_visible="true"
       lpeversion="1"
       nodesatellites_param="F,0,0,1,0,0,0,1 @ F,0,0,1,0,263.2086169,0,1 @ F,0,0,1,0,0,0,1"
       radius="0"
       unit="px"
       method="auto"
       mode="F"
       chamfer_steps="1"
       flexible="false"
       use_knot_distance="true"
       apply_no_radius="true"
       apply_with_radius="true"
       only_selected="false"
       hide_knots="false" />
    <inkscape:path-effect
       effect="fillet_chamfer"
       id="path-effect9-8"
       is_visible="true"
       lpeversion="1"
       nodesatellites_param="F,0,0,1,0,0,0,1 @ F,0,0,1,0,263.2086169,0,1 @ F,0,0,1,0,0,0,1"
       radius="0"
       unit="px"
       method="auto"
       mode="F"
       chamfer_steps="1"
       flexible="false"
       use_knot_distance="true"
       apply_no_radius="true"
       apply_with_radius="true"
       only_selected="false"
       hide_knots="false" />
  </defs>
  <sodipodi:namedview
     id="namedview9"
     pagecolor="#ffffff"
     bordercolor="#000000"
     borderopacity="0.25"
     inkscape:showpageshadow="2"
     inkscape:pageopacity="0.0"
     inkscape:pagecheckerboard="0"
     inkscape:deskcolor="#d1d1d1"
     inkscape:zoom="1.168"
     inkscape:cx="393.8356164"
     inkscape:cy="439.2123288"
     inkscape:window-width="2560"
     inkscape:window-height="1371"
     inkscape:window-x="0"
     inkscape:window-y="32"
     inkscape:window-maximized="1"
     inkscape:current-layer="g8" />
  <title
     id="title1">FILE</title>
  <g
     data-name="Layer 7"
     id="g8"
     transform="translate(0,8)">
    <path
       d="m 364,293 a 13.75,13.75 0 0 0 8.36,2.68 17.29,17.29 0 0 0 5.32,-0.86 25.52,25.52 0 0 0 16.79,-22.38 c 0.15,-5.26 -1.87,-9.86 -5.56,-12.63 -7.28,-5.45 -18.44,-2.43 -25.42,6.87 -6.98,9.3 -6.78,20.84 0.51,26.32 z m 7.87,-20 c 2.66,-3.55 6.18,-5.38 8.68,-5.38 a 3.43,3.43 0 0 1 2.07,0.6 c 1.27,0.95 1.4,2.88 1.37,3.94 a 11.54,11.54 0 0 1 -0.82,3.87 15.77,15.77 0 0 1 -2.13,3.83 14,14 0 0 1 -6.57,5 c -1,0.33 -2.9,0.74 -4.18,-0.22 -2.19,-1.64 -1.97,-7 1.55,-11.64 z"
       id="path1" />
    <path
       d="m 420.4,299.34 a 16.31,16.31 0 0 0 8.23,2.35 13.18,13.18 0 0 0 5.51,-1.18 c 4.21,-1.91 7.17,-6 8.16,-11.12 a 24.32,24.32 0 0 0 -2,-14.47 c -4.83,-10.6 -15.08,-15.95 -23.35,-12.18 -4.19,1.91 -7.17,6 -8.15,11.13 a 25.53,25.53 0 0 0 11.58,25.47 z m -1.29,-23.51 c 0.2,-1 0.75,-2.89 2.2,-3.55 a 2.89,2.89 0 0 1 1.22,-0.24 7.18,7.18 0 0 1 4.3,1.89 15.09,15.09 0 0 1 3.94,5.33 13.89,13.89 0 0 1 1.23,8.15 c -0.2,1 -0.74,2.9 -2.2,3.56 -1.46,0.66 -3.19,-0.15 -4.12,-0.68 a 15.14,15.14 0 0 1 -6.57,-14.46 z"
       id="path2" />
    <path
       d="m 327.37,291.41 a 103.85,103.85 0 0 1 -12.77,-12.88 23.81,23.81 0 0 1 5.4,0.5 5.241252236,5.241252236 0 1 0 2.1,-10.27 c -21.43,-4.39 -31.8,12 -32.23,12.66 a 5.24,5.24 0 0 0 8.91,5.51 19.1,19.1 0 0 1 5.13,-5 112.05,112.05 0 0 0 14.85,15.87 5.19,5.19 0 0 0 0.82,1.39 c 0.34,0.4 8.29,10 5.82,26.12 -1.6,10.48 2,33.06 18.49,49.1 8.45,8.22 22.77,16.86 45.63,16.86 a 106.58,106.58 0 0 0 19,-1.8 c 2.3,-0.28 15.4,-2.49 29.83,-17.42 a 0.94,0.94 0 0 0 0.1,-0.1 100.37,100.37 0 0 0 14.6,-19.79 c 16.87,-29.33 18.07,-29.89 27.39,-34.21 l 2.33,-1.09 c 4.9,-1.94 9.87,-4.06 15.09,-6.34 a 23,23 0 0 1 1.84,7.28 5.24,5.24 0 0 0 5.21,4.77 h 0.49 a 5.25,5.25 0 0 0 4.74,-5.7 c -2,-21.78 -20.63,-27 -21.42,-27.21 a 5.241824587,5.241824587 0 1 0 -2.7,10.13 17.91,17.91 0 0 1 4.8,2.38 q -4.9,2.12 -9.59,4 a 5.19,5.19 0 0 0 -1.3,0.42 l -1.36,0.65 c -3.48,1.37 -6.91,2.64 -10.34,3.81 a 50.23,50.23 0 0 0 5.07,-17 c 1.54,-14.14 -4.77,-30.95 -16.89,-45 -13.12,-15.16 -30.6,-24.64 -49.24,-26.66 -18.64,-2.02 -37.75,3.45 -53.82,15.44 -14.85,11.08 -24.63,26.17 -26.17,40.27 a 54.38,54.38 0 0 0 0.19,13.31 z m 8.39,35.49 a 48.36,48.36 0 0 0 0.31,-12.84 v 0 a 39,39 0 0 0 28.46,16.45 c 7.81,0.85 14.37,-1.25 20.17,-3.1 4.3,-1.38 8,-2.57 11.26,-2.22 1.38,0.15 3.85,2.31 6,4.22 a 55.74,55.74 0 0 0 6.53,5.12 v 0 0 c -12.77,-4.22 -27.95,-4.31 -42.86,0.74 a 70.65,70.65 0 0 0 -25.66,15.17 c -4.13,-9.78 -4.87,-19.22 -4.21,-23.54 z m 71.56,52.16 a 4,4 0 0 0 -0.5,0.07 c -11.35,2.07 -21.49,2.22 -30.4,0.52 l 0.14,-0.41 c 0.27,-0.6 0.5,-1.22 0.76,-1.83 a 35.37,35.37 0 0 1 3.9,-7 c 0.38,-0.55 0.78,-1.1 1.21,-1.61 0.43,-0.51 0.84,-1.07 1.28,-1.58 a 37.4,37.4 0 0 1 2.89,-2.88 39.64,39.64 0 0 1 6.75,-4.9 h 0.06 a 1.06,1.06 0 0 0 0.45,-1.22 1,1 0 0 0 -1.31,-0.66 37.75,37.75 0 0 0 -8.3,3.59 35.16,35.16 0 0 0 -7.3,5.65 41.75,41.75 0 0 0 -5.85,7.29 30.62,30.62 0 0 0 -2,3.65 46.94,46.94 0 0 1 -17.92,-10.84 48.37,48.37 0 0 1 -5.87,-6.93 59.51,59.51 0 0 1 23.76,-14.75 c 26,-8.8 52.65,0.45 59.48,20.62 0.11,0.31 0.19,0.62 0.29,0.93 -11.52,11.06 -21,12.23 -21.52,12.29 z M 444,346.93 a 98.78,98.78 0 0 1 -7.32,11 44.36,44.36 0 0 0 -20.17,-20.1 h 0.06 c 0.51,0.1 1,0.18 1.55,0.24 a 57.06,57.06 0 0 0 6.05,0.34 48.15,48.15 0 0 0 31.75,-11.55 c -3.14,4.9 -6.92,11.33 -11.92,20.07 z M 337.6,279.24 c 1.2,-11.12 9.64,-23.77 22,-33 13.94,-10.4 30.42,-15.17 46.42,-13.42 16,1.75 31.06,9.94 42.43,23.1 10.1,11.67 15.62,25.83 14.41,37 A 40.31,40.31 0 0 1 452,316.14 v 0 a 5.31,5.31 0 0 0 -1,1 l -0.09,0.09 v 0 c -7.65,7.39 -18.56,11.88 -31.64,10.45 -3.72,-0.41 -7.08,-3.34 -10.33,-6.19 -3.51,-3.07 -7.14,-6.23 -11.79,-6.74 a 22.68,22.68 0 0 0 -2.32,-0.12 c -4.6,0 -9,1.4 -13.28,2.78 -5,1.6 -10.24,3.27 -15.84,2.65 A 29.18,29.18 0 0 1 343,305.46 43.93,43.93 0 0 1 337.6,279.24 Z"
       id="path3" />
    <path
       d="m 292.32,225.82 c -8.26,4.5 -13.57,13.87 -15.19,23.81 a 4.2,4.2 0 0 0 6.24,4.33 c 13.74,-7.82 27.37,-11.91 40.91,-12.36 a 4.18,4.18 0 0 0 3,-7 C 318,224.77 304,219.48 292.32,225.82 Z"
       id="path4" />
    <path
       d="m 269.68,220 c -0.45,0.52 -0.86,1.08 -1.27,1.65 -0.41,0.57 -0.78,1.11 -1.24,1.84 a 3.142387627,3.142387627 0 0 0 5.22,3.5 l 0.09,-0.13 c 0.25,-0.34 0.64,-0.87 1,-1.3 l 1.15,-1.36 c 0.77,-0.92 1.59,-1.81 2.43,-2.66 a 55.62,55.62 0 0 1 5.36,-4.92 48.29,48.29 0 0 1 12.58,-7.49 45.28,45.28 0 0 1 7.06,-2.24 49.23,49.23 0 0 1 7.37,-1.2 66.06,66.06 0 0 1 15.12,0.42 0.89,0.89 0 0 0 0.35,-1.74 62.88,62.88 0 0 0 -15.63,-2.07 53.47,53.47 0 0 0 -8,0.61 51,51 0 0 0 -7.86,1.77 54.19,54.19 0 0 0 -14.62,7 47.65,47.65 0 0 0 -6.35,5.19 c -0.94,1 -1.86,2.02 -2.76,3.13 z"
       id="path5" />
    <path
       d="m 469.78,241.67 q 21.45,0.71 43.21,13.05 a 4.44,4.44 0 0 0 6.59,-4.58 c -1.71,-10.5 -7.32,-20.39 -16,-25.14 -12.32,-6.7 -27.14,-1.11 -36.9,9.26 a 4.42,4.42 0 0 0 3.1,7.41 z"
       id="path6" />
    <path
       d="m 470.68,206.12 v 0 a 66.64,66.64 0 0 1 15.12,-0.38 50.66,50.66 0 0 1 7.36,1.21 45.5,45.5 0 0 1 7.05,2.24 48.37,48.37 0 0 1 12.56,7.45 59.19,59.19 0 0 1 5.35,4.9 c 0.85,0.85 1.67,1.74 2.45,2.64 l 1.16,1.35 c 0.37,0.43 0.77,0.95 1,1.29 l 0.15,0.2 a 3.14,3.14 0 0 0 5.16,-3.57 c -0.46,-0.73 -0.83,-1.25 -1.26,-1.83 -0.43,-0.58 -0.83,-1.12 -1.28,-1.64 -0.9,-1 -1.83,-2.06 -2.81,-3 a 49,49 0 0 0 -6.34,-5.17 53.64,53.64 0 0 0 -14.6,-7 50.62,50.62 0 0 0 -7.85,-1.78 53.27,53.27 0 0 0 -8,-0.61 63.3,63.3 0 0 0 -15.62,2 0.8913613184,0.8913613184 0 0 0 0.34,1.75 z"
       id="path7" />
    <path
       d="M 729.77,424.07 A 5.22,5.22 0 0 0 727,419.7 l -21.47,-11.62 9.41,-3.37 a 5.24,5.24 0 0 0 2.13,-8.43 77.8,77.8 0 0 0 -28.27,-19.51 c -1.87,-0.78 -3.76,-1.48 -5.64,-2.1 l -1.64,-0.53 -2.13,-0.63 c -0.73,-0.2 -1.44,-0.4 -2.16,-0.58 A 76.85,76.85 0 0 0 666.66,371 c -1.4,-0.15 -2.81,-0.27 -4.19,-0.34 l -1.48,-0.07 h -0.7 -1.44 -0.64 -0.79 -0.26 c -0.23,0 -0.45,0 -0.67,0 h -0.12 -0.61 c -0.54,0 -1.06,0.05 -1.58,0.09 -0.52,0.04 -1,0.07 -1.45,0.12 -0.45,0.05 -1.15,0.11 -1.73,0.18 l -1.06,0.14 c -1.05,0.16 -2.09,0.34 -3.1,0.54 h -0.08 c -1.25,0.25 -2.49,0.53 -3.7,0.87 l -1.2,0.35 c -0.29,0.09 -0.6,0.18 -0.89,0.29 -0.82,0.25 -1.62,0.53 -2.4,0.83 -0.45,0.18 -0.91,0.36 -1.37,0.56 l -1.33,0.59 a 35.9,35.9 0 0 0 -9.45,6.23 0.13,0.13 0 0 1 -0.07,0.06 c -0.52,0.49 -1,1 -1.5,1.5 -0.27,0.27 -0.52,0.55 -0.78,0.83 -0.46,0.54 -0.92,1.09 -1.35,1.67 l -0.65,0.88 a 28.15,28.15 0 0 0 -1.62,2.55 l -0.48,0.89 v 0 c -0.2,0.4 -0.4,0.8 -0.59,1.21 l -0.06,0.13 -0.06,0.13 v 0 a 188.38,188.38 0 0 0 -35.26,7.38 108.94,108.94 0 0 0 18,-65.35 v 0 c 34.37,-2.33 61.52,-17.65 80.73,-45.57 16.07,-23.34 22.86,-50.37 25.71,-68.94 a 187.82,187.82 0 0 0 2.25,-27.89 c 0,-8.16 -0.71,-14.42 -1.83,-17.62 -3.43,-9.77 -6.87,-10.84 -15.47,-9.12 -8.14,1.62 -27.21,5.43 -76.61,-6.39 -44.61,-10.67 -73.26,-1.44 -90.28,9.5 v 0 A 175.88,175.88 0 0 0 490.75,132.78 C 456.62,108.21 417.75,99.11 378.49,106.47 349,112 319,127.05 296.13,147.75 a 160.8,160.8 0 0 0 -26.08,30.54 v 0 c -16.65,-11.89 -44.89,-21.94 -89.79,-11.2 -47.34,11.32 -65.59,7.68 -73.39,6.12 -8.25,-1.65 -11.76,-0.55 -15.07,8.89 -3.71,10.54 -4,70.46 27.15,112.87 20.06,27.31 48.42,41.15 84.33,41.18 v 0 c 0.29,2.87 0.67,5.83 1.19,8.91 a 126.51,126.51 0 0 0 9.9,32.38 v 0 a 209.55,209.55 0 0 0 -33,-9.36 c -0.06,-0.19 -0.14,-0.39 -0.22,-0.58 -0.15,-0.36 -0.32,-0.73 -0.47,-1.09 v 0 a 0.53,0.53 0 0 0 -0.06,-0.1 c -0.14,-0.33 -0.3,-0.65 -0.47,-1 -0.24,-0.49 -0.51,-1 -0.77,-1.43 -0.44,-0.76 -0.91,-1.48 -1.41,-2.18 -0.26,-0.37 -0.53,-0.73 -0.8,-1.08 -0.27,-0.35 -0.56,-0.71 -0.85,-1.05 a 24.51,24.51 0 0 0 -1.84,-2 c -0.4,-0.4 -0.82,-0.79 -1.24,-1.17 a 35,35 0 0 0 -7.1,-4.92 c -1.07,-0.56 -2.17,-1.08 -3.3,-1.57 -0.9,-0.38 -1.82,-0.73 -2.76,-1.06 -0.33,-0.11 -0.66,-0.23 -1,-0.33 a 8.57,8.57 0 0 0 -0.9,-0.28 c -0.81,-0.26 -1.63,-0.49 -2.46,-0.68 -0.83,-0.19 -1.65,-0.39 -2.5,-0.56 l -1.32,-0.25 h -0.23 c -0.45,-0.08 -0.9,-0.14 -1.36,-0.21 -0.46,-0.07 -0.88,-0.13 -1.33,-0.18 h -0.36 c -0.41,-0.06 -0.82,-0.1 -1.24,-0.14 -0.64,-0.06 -1.29,-0.12 -1.94,-0.15 -0.37,0 -0.74,-0.05 -1.12,-0.06 l -1.53,-0.05 c -1.69,0 -3.38,0 -5.11,0.07 -0.49,0 -1,0 -1.44,0.1 l -0.78,0.05 c -0.54,0 -1.07,0.09 -1.61,0.16 a 75.13,75.13 0 0 0 -7.71,1.21 c -0.57,0.12 -1.15,0.24 -1.72,0.38 -0.57,0.14 -1.26,0.29 -1.89,0.46 l -1.9,0.51 a 85.4,85.4 0 0 0 -9.41,3.26 78.14,78.14 0 0 0 -28.27,19.5 A 5.25,5.25 0 0 0 85,380 l 9.41,3.38 L 73,395 a 5.25,5.25 0 0 0 -2.75,4.38 c 0,0.81 0,1.61 0,2.4 0,0.31 0,0.61 0,0.91 0,0.11 0,0.2 0,0.31 0,0.49 0.08,1 0.14,1.48 0,0.15 0,0.3 0,0.45 0,0.15 0.07,0.47 0.11,0.7 0.04,0.23 0.11,0.72 0.19,1.08 0.08,0.36 0.19,0.9 0.29,1.34 0,0.06 0,0.13 0,0.19 0,0.06 0.07,0.28 0.11,0.43 l 0.06,0.21 a 30.08,30.08 0 0 0 1.16,3.43 c 4.33,10.48 14.25,17.74 27.94,20.47 a 60.91,60.91 0 0 0 12,1.14 75.75,75.75 0 0 0 20.6,-3 c 44.23,7.49 82.43,35.25 107.42,58.15 -3.61,14.28 -7.05,30.15 -9.61,46.69 -3.59,23.17 -14.93,35.39 -33.71,36.33 v 0 c -10.38,0.52 -25.07,-3.38 -28.55,-4.35 v 0 c -5.62,-4.14 -11.62,-6.57 -17.63,-6.85 a 7.18,7.18 0 0 0 -7.26,5 37.34,37.34 0 0 0 -1.59,7.87 6.73,6.73 0 0 0 -4.52,-5.23 7.3,7.3 0 0 0 -7.93,2.16 c -10.86,12.9 -14.18,36.82 -8.49,61 3.76,15.89 10.9,30.06 20.13,39.9 8.14,8.69 17.18,13.26 26,13.26 a 25.05,25.05 0 0 0 5.77,-0.67 25.53,25.53 0 0 0 10.45,-5.18 c 4.43,-1.37 12.79,-3.8 24.58,-6.63 51.9,-12.48 189.46,-36.63 345.37,8.6 6.19,1.8 12.32,3.68 18.28,5.6 a 24,24 0 0 0 11.22,8.29 22.35,22.35 0 0 0 7.28,1.19 c 19,0 40.63,-22.67 52,-56 9,-26.37 9,-53.11 0,-68.14 a 7.09,7.09 0 0 0 -13,2.12 44.38,44.38 0 0 0 -0.49,-8.65 7.09,7.09 0 0 0 -6.94,-6.12 h -0.35 a 28.69,28.69 0 0 0 -11.46,2.55 c -3.71,0 -16,-0.38 -26,-2.35 -20.68,-4.07 -31.22,-14.4 -31.34,-30.72 22.3,-24.27 64.22,-62.39 115.08,-73 a 75.8,75.8 0 0 0 20.15,2.83 61.68,61.68 0 0 0 12,-1.14 c 13.69,-2.72 23.61,-10 27.94,-20.47 a 28.15,28.15 0 0 0 1.17,-3.46 c 0,-0.06 0,-0.12 0,-0.18 l 0.08,-0.31 a 3.89,3.89 0 0 0 0.1,-0.4 c 0.11,-0.41 0.19,-0.81 0.27,-1.22 0.08,-0.41 0.13,-0.69 0.18,-1 0.05,-0.31 0.09,-0.55 0.12,-0.82 0,-0.1 0,-0.21 0,-0.31 0.06,-0.54 0.11,-1.07 0.16,-1.61 0,-0.09 0,-0.18 0,-0.26 0,-0.3 0,-0.62 0,-0.92 0.08,-0.8 0.07,-1.59 0.04,-2.4 z m -86.18,-40.7 c 0.53,-0.18 1.07,-0.35 1.61,-0.51 0.32,-0.09 0.63,-0.19 1,-0.26 l 1,-0.25 c 0.66,-0.17 1.33,-0.32 2,-0.44 l 0.92,-0.16 c 0.4,-0.07 0.8,-0.14 1.21,-0.19 l 1,-0.14 0.68,-0.07 1.12,-0.11 1.14,-0.09 a 64.59,64.59 0 0 1 21.7,2.56 c 0.41,0.11 0.83,0.24 1.25,0.37 0.42,0.13 1.11,0.33 1.67,0.52 1.66,0.56 3.34,1.17 5,1.87 a 71.24,71.24 0 0 1 18.69,11.21 l -12.58,4.5 a 5.23,5.23 0 0 0 -0.72,9.54 l 29,15.67 v 0 c -17.06,2.59 -32,1.45 -45.67,-3.47 A 99.81,99.81 0 0 1 630.42,392.8 c 0.11,-0.18 0.24,-0.36 0.36,-0.52 a 6.42,6.42 0 0 1 0.38,-0.53 l 0.46,-0.58 c 0.15,-0.18 0.31,-0.37 0.48,-0.55 0.17,-0.18 0.32,-0.37 0.5,-0.55 l 0.52,-0.53 0.55,-0.51 c 0.19,-0.18 0.38,-0.35 0.58,-0.51 0.36,-0.31 0.75,-0.63 1.14,-0.92 a 28.43,28.43 0 0 1 5.22,-3.06 c 0.9,-0.4 1.92,-0.8 2.98,-1.17 z M 586.05,287 l -0.76,-1.18 c -0.46,-0.73 -0.91,-1.46 -1.36,-2.19 l -1,-1.67 c -0.35,-0.58 -0.69,-1.18 -1,-1.77 -0.31,-0.59 -0.62,-1.05 -0.92,-1.58 l -0.84,-1.48 c -0.41,-0.72 -0.8,-1.44 -1.19,-2.16 -0.52,-0.94 -1,-1.88 -1.53,-2.83 -0.53,-0.95 -0.95,-1.8 -1.41,-2.71 -0.28,-0.55 -0.56,-1.09 -0.83,-1.64 -0.4,-0.78 -0.78,-1.56 -1.17,-2.34 -0.26,-0.55 -0.53,-1.09 -0.8,-1.64 -0.54,-1.13 -1.08,-2.26 -1.6,-3.39 -0.41,-0.87 -0.81,-1.75 -1.21,-2.63 -0.24,-0.53 -0.49,-1.06 -0.72,-1.59 l -1.18,-2.65 -0.63,-1.45 c -0.45,-1 -0.88,-2.05 -1.31,-3.07 -0.08,-0.17 -0.15,-0.34 -0.22,-0.51 -0.51,-1.22 -1,-2.43 -1.51,-3.64 -0.42,-1 -0.83,-2 -1.24,-3 q -0.88,-2.19 -1.73,-4.35 -1.26,-3.21 -2.44,-6.31 c -0.53,-1.37 -1,-2.73 -1.54,-4.06 l -2.18,-5.81 c -0.3,-0.81 -0.6,-1.59 -0.89,-2.38 -0.29,-0.79 -0.62,-1.63 -0.92,-2.43 -0.2,-0.55 -0.41,-1.1 -0.61,-1.64 -0.33,-0.87 -0.66,-1.73 -1,-2.59 -0.15,-0.38 -0.3,-0.77 -0.46,-1.16 13.81,-12 33.81,-23.86 55.1,-18 38.87,10.75 55.91,12.17 71.43,5.36 2.36,7.89 3,34.87 -9.89,60.74 -10,20.11 -30.7,43.89 -72.76,44.73 -0.47,-1.14 -1,-2.25 -1.49,-3.35 l -0.19,-0.41 c -0.17,-0.38 -0.35,-0.75 -0.55,-1.12 -0.2,-0.37 -0.31,-0.6 -0.46,-0.9 -0.81,-1.58 -1.67,-3.1 -2.58,-4.58 l -0.19,-0.31 c -0.55,-0.88 -1.11,-1.75 -1.69,-2.6 -0.06,-0.09 -0.12,-0.19 -0.19,-0.28 -0.84,-1.19 -1.59,-2.33 -2.34,-3.43 z M 532.76,175.69 c 15.27,-9.59 41,-17.48 81.63,-7.77 51.64,12.36 72.29,8.23 81.11,6.47 0.85,-0.17 1.76,-0.35 2.45,-0.46 0.23,0.53 0.58,1.39 1.06,2.78 1.3,3.68 2.36,19.32 -0.89,40.45 -2.68,17.48 -9,42.88 -24,64.58 -17.37,25.24 -42,39 -73.18,41.07 -0.49,-2.9 -1.09,-5.75 -1.84,-8.52 52.38,-2.44 74.2,-37.86 82.64,-59.39 11,-28 10.55,-59 2.87,-66 a 7.35,7.35 0 0 0 -4.94,-2 7.26,7.26 0 0 0 -3.27,0.79 c -12.09,6.14 -24.59,6.9 -66.76,-4.76 -24.43,-6.75 -46.59,5.08 -62.29,18.07 v 0 q -0.81,-1.71 -1.65,-3.39 c -0.43,-0.86 -0.87,-1.7 -1.3,-2.55 l -1.18,-2.23 q -1.11,-2.05 -2.27,-4.1 l -0.84,-1.45 q -1.47,-2.53 -3,-5 l -0.47,-0.76 c -1.26,-2 -2.55,-3.94 -3.89,-5.87 z M 303.17,155.51 C 344.26,118.26 416.44,92.18 484.66,141.3 a 165,165 0 0 1 36.48,36.18 v 0 q 3.54,4.81 6.74,9.87 l 0.14,0.23 c 1.28,2 2.51,4.08 3.7,6.16 l 0.43,0.74 c 0.54,0.95 1.07,1.91 1.59,2.87 l 1.13,2.13 c 0.55,1.06 1.09,2.11 1.62,3.18 0.64,1.3 1.28,2.6 1.9,3.92 l 0.4,0.87 c 0.73,1.6 1.44,3.2 2.13,4.83 l 0.41,1 c 0.72,1.73 1.43,3.48 2.09,5.24 0.29,0.76 0.58,1.54 0.87,2.31 l 1.54,4.11 c 3.18,8.49 6.85,18.3 11.18,28.5 a 271.73,271.73 0 0 0 17.45,34.78 q 2.6,4.27 5.39,8.37 c 0.62,0.88 1.2,1.8 1.76,2.73 0.43,0.7 0.85,1.42 1.25,2.15 l 0.07,0.12 0.1,0.2 c 0.34,0.62 0.67,1.27 1,1.91 0.21,0.41 0.41,0.82 0.6,1.24 0.19,0.42 0.47,1 0.7,1.52 l 0.26,0.6 c 0.27,0.63 0.53,1.28 0.78,1.92 0.25,0.64 0.51,1.31 0.75,2 0,0 0,0 0,0.05 0.12,0.33 0.24,0.67 0.35,1 0.11,0.33 0.32,0.9 0.46,1.35 0.26,0.8 0.51,1.61 0.74,2.43 0.1,0.35 0.19,0.71 0.28,1.06 0.14,0.52 0.28,1 0.41,1.56 0.13,0.56 0.28,1.17 0.41,1.76 0,0.17 0.07,0.33 0.1,0.49 q 0.86,4 1.34,8.19 c 0,0.12 0,0.22 0,0.34 C 593.87,352.85 587,381 566.08,405 a 253.38,253.38 0 0 0 -48.17,26.25 c -8.44,5.83 -15.71,11.54 -21.7,16.6 -32,10 -70.8,13.78 -115.33,11.17 a 267.56,267.56 0 0 1 -76.71,-17 A 194.06,194.06 0 0 1 272.64,426.46 5.73,5.73 0 0 0 272,426 c -18,-11.29 -32,-25.1 -41.84,-41 a 4.41,4.41 0 0 0 -0.44,-0.6 115.45,115.45 0 0 1 -14.92,-41 120.19,120.19 0 0 1 -1.48,-12.73 v -0.08 a 0.06,0.06 0 0 1 0,-0.06 c 0,0 0,0 0,0 -0.07,-1.19 -0.1,-2.33 -0.13,-3.48 v -0.12 c 0,-0.74 0,-1.48 0,-2.21 0,-0.29 0,-0.59 0,-0.88 a 80,80 0 0 1 1.39,-14.28 q 0.18,-1 0.39,-1.89 c 0.14,-0.67 0.29,-1.32 0.46,-2 0.17,-0.68 0.32,-1.3 0.5,-1.94 0.18,-0.64 0.36,-1.28 0.56,-1.91 l 0.57,-1.84 c 0.37,-1.12 0.77,-2.22 1.18,-3.3 0.17,-0.45 0.34,-0.89 0.52,-1.34 0.18,-0.45 0.41,-1 0.62,-1.52 0.27,-0.67 0.57,-1.35 0.87,-2 0.3,-0.65 0.76,-1.65 1.14,-2.47 0.23,-0.49 0.48,-1 0.73,-1.48 0.25,-0.48 0.48,-1 0.74,-1.47 0.26,-0.47 0.5,-1 0.77,-1.46 q 1.17,-2.21 2.43,-4.38 c 0.27,-0.49 0.55,-1 0.85,-1.46 0.09,-0.18 0.2,-0.35 0.29,-0.52 0.24,-0.39 0.47,-0.79 0.72,-1.2 l 1.63,-2.65 c 0.55,-0.9 1.12,-1.81 1.7,-2.72 0.08,-0.14 0.17,-0.27 0.26,-0.41 l 0.85,-1.34 0.92,-1.44 0.13,-0.2 c 0.4,-0.63 0.81,-1.26 1.22,-1.89 l 0.58,-0.89 1,-1.52 0.7,-1.1 c 3.06,-4.73 6.24,-9.67 9.44,-15 l 0.2,-0.32 c 0.3,-0.49 0.59,-1 0.88,-1.48 v 0 l 0.06,-0.11 c 1,-1.64 1.93,-3.31 2.9,-5 v 0 c 0.47,-0.83 0.94,-1.68 1.41,-2.54 1,-1.78 1.94,-3.62 2.9,-5.5 0.2,-0.39 0.41,-0.78 0.61,-1.18 0.2,-0.4 0.42,-0.86 0.64,-1.29 0.39,-0.79 0.78,-1.58 1.17,-2.39 0.06,-0.14 0.13,-0.29 0.2,-0.43 0.72,-1.5 1.42,-3 2.12,-4.59 0.21,-0.47 0.43,-0.93 0.64,-1.41 l 0.06,-0.15 c 0.13,-0.3 0.27,-0.6 0.4,-0.91 0.13,-0.31 0.39,-0.89 0.58,-1.35 l 0.16,-0.37 c 0.12,-0.28 0.23,-0.57 0.35,-0.85 0.12,-0.28 0.35,-0.85 0.53,-1.27 l 0.22,-0.54 c 0.39,-0.93 0.77,-1.87 1.13,-2.83 v 0 c 0.38,-1 0.79,-2 1.2,-3 0.41,-1 0.71,-1.7 1.08,-2.56 l 0.85,-1.93 0.57,-1.25 c 0.43,-0.93 0.88,-1.86 1.33,-2.78 0.25,-0.52 0.5,-1 0.76,-1.56 0.4,-0.81 0.81,-1.61 1.23,-2.41 l 0.83,-1.57 a 152.45,152.45 0 0 1 31.81,-41.14 z m -55.68,68.57 v 0.09 l -1.32,2.65 c -0.18,0.37 -0.37,0.74 -0.56,1.11 l -0.45,0.88 -0.87,1.68 L 244,231 c -0.43,0.82 -0.87,1.63 -1.3,2.43 l -0.34,0.62 c -1.25,2.29 -2.51,4.49 -3.77,6.64 -0.73,1.23 -1.46,2.45 -2.18,3.64 L 236,245 q -1.32,2.16 -2.64,4.25 l -0.39,0.62 q -1.27,2 -2.53,4 c -0.31,0.47 -0.61,0.95 -0.91,1.42 l -1.08,1.66 -1,1.61 c -2.39,3.7 -4.74,7.32 -7,10.94 l -0.22,0.36 q -0.87,1.41 -1.71,2.82 l -0.48,0.8 c -0.38,0.65 -0.76,1.3 -1.13,1.95 -0.24,0.41 -0.47,0.82 -0.7,1.23 l -0.07,0.13 -0.27,0.48 v 0 c -0.2,0.38 -0.41,0.75 -0.61,1.12 l -0.12,0.23 c -0.28,0.51 -0.55,1 -0.82,1.53 l -0.43,0.81 -0.14,0.25 -0.16,0.34 c -0.23,0.43 -0.45,0.87 -0.68,1.32 -0.12,0.23 -0.23,0.46 -0.34,0.7 a 0.83,0.83 0 0 0 -0.07,0.13 98.08,98.08 0 0 0 -4,9 c -0.25,0.66 -0.5,1.32 -0.73,2 -0.09,0.22 -0.17,0.45 -0.25,0.68 -0.08,0.23 -0.08,0.21 -0.11,0.32 -0.03,0.11 0,0.1 0,0.16 -0.1,0.28 -0.19,0.56 -0.28,0.84 -0.15,0.46 -0.3,0.91 -0.44,1.37 l -0.23,0.71 c 0,0.2 -0.1,0.4 -0.16,0.6 a 0.48,0.48 0 0 0 -0.06,0.18 l -0.3,1 c 0,0 0,0.06 0,0.09 -0.13,0.44 -0.25,0.89 -0.37,1.34 0,0.18 -0.09,0.37 -0.13,0.55 -0.04,0.18 -0.08,0.3 -0.12,0.45 -0.2,0.79 -0.38,1.59 -0.56,2.4 a 0.19,0.19 0 0 1 0,0.07 c -0.12,0.58 -0.24,1.15 -0.35,1.74 -41.47,0.51 -62.12,-21.65 -72.21,-40.68 -13.29,-25.09 -12.93,-52 -10.64,-60 14.89,6.45 31.29,5.05 68.44,-5.22 23.52,-6.5 45.51,9.93 57.88,22.05 -0.2,0.33 -0.3,0.53 -0.39,0.73 z m -44.82,101.59 c -32.12,-0.2 -57.43,-12.6 -75.29,-36.9 -27.93,-38 -28.8,-94.38 -25.71,-103.2 0.43,-1.2 0.73,-2 1,-2.49 0.63,0.1 1.44,0.26 2.18,0.41 8.47,1.7 28.31,5.66 77.88,-6.21 41.68,-10 67.15,-0.75 81.83,9.95 -0.18,0.3 -0.35,0.61 -0.51,0.92 -0.78,1.39 -1.54,2.78 -2.29,4.19 -0.38,0.71 -0.74,1.41 -1.1,2.12 -0.2,0.38 -0.38,0.77 -0.57,1.16 -0.3,0.61 -0.61,1.21 -0.9,1.83 -0.09,0.17 -0.18,0.34 -0.26,0.51 -0.08,0.17 -0.26,0.53 -0.39,0.79 -0.36,0.79 -0.73,1.57 -1.1,2.37 -0.37,0.8 -0.6,1.32 -0.89,2 -0.29,0.68 -0.64,1.46 -0.95,2.2 -0.63,1.47 -1.23,3 -1.82,4.45 -0.47,1.2 -0.94,2.39 -1.42,3.55 -14.51,-13.38 -38.52,-29.37 -65.22,-22 -40.36,11.16 -52.34,10.43 -63.87,4.57 a 7.05,7.05 0 0 0 -8.19,1.24 c -7.76,7.22 -7.52,39.1 3.81,66 8.75,20.74 31.15,54.66 84,54.66 h 0.06 q -0.15,2.22 -0.21,4.53 c 0,0.51 0,1 0,1.55 v 0.35 c -0.05,0.48 -0.07,0.96 -0.07,1.45 z m -92.92,61.38 a 5.24,5.24 0 0 0 -0.72,-9.55 L 96.49,373 a 70.71,70.71 0 0 1 18.69,-11.21 q 2.56,-1.05 5.15,-1.91 c 0.51,-0.18 1,-0.33 1.54,-0.49 a 65.52,65.52 0 0 1 21.8,-3 H 144 c 1.19,0.06 2.37,0.15 3.52,0.3 l 1.06,0.13 1,0.17 1.3,0.23 0.49,0.1 a 37.89,37.89 0 0 1 7.31,2.23 c 0.11,0.05 0.23,0.09 0.34,0.15 0.42,0.17 0.83,0.37 1.23,0.57 l 0.72,0.36 1,0.54 0.93,0.57 a 8.92,8.92 0 0 1 0.88,0.58 c 0.22,0.14 0.44,0.3 0.65,0.46 0.21,0.16 0.53,0.38 0.78,0.58 0.59,0.49 1.17,1 1.71,1.51 0.35,0.34 0.7,0.71 1,1.07 0.3,0.36 0.65,0.76 1,1.16 0.13,0.18 0.28,0.37 0.41,0.56 l 0.32,0.46 v 0 a 100,100 0 0 1 -43.2,31.13 c -13.64,4.9 -28.61,6.05 -45.67,3.47 v 0 z m 23.17,33 q -0.87,0.29 -1.74,0.54 v 0 c -10,3 -20,3.68 -28.73,1.93 -7.22,-1.44 -13,-4.41 -16.71,-8.57 a 116.71,116.71 0 0 0 12.09,0.64 94,94 0 0 0 32.2,-5.43 111.41,111.41 0 0 0 42.77,-28.55 c -0.94,12 -11.55,25.48 -27.39,34.09 -1,0.57 -2.13,1.13 -3.25,1.65 -1.12,0.52 -2.48,1.16 -3.76,1.68 -1.28,0.52 -2.48,1 -3.75,1.43 L 133,420 Z m 17.52,3.86 c 0.68,-0.37 1.34,-0.73 2,-1.11 l 0.35,-0.21 1.61,-1 1,-0.63 c 1.49,-1 3,-1.94 4.35,-3 l 1.56,-1.17 1,-0.77 c 0.53,-0.42 1,-0.84 1.54,-1.27 0.54,-0.43 1,-0.86 1.5,-1.3 l 1.33,-1.2 0.12,-0.12 q 0.71,-0.66 1.38,-1.35 c 0.93,-0.92 1.82,-1.86 2.67,-2.81 L 172,406.7 c 0.42,-0.51 0.83,-1 1.22,-1.52 l 1,-1.25 c 0.45,-0.6 0.88,-1.2 1.29,-1.81 l 0.29,-0.42 0.35,-0.53 0.38,-0.57 c 0.18,-0.32 0.38,-0.62 0.57,-0.94 0.11,-0.15 0.2,-0.32 0.31,-0.49 0.26,-0.46 0.52,-0.91 0.77,-1.37 a 38.82,38.82 0 0 0 5.26,-18.61 207.57,207.57 0 0 1 38.72,12.67 c 9.11,14.38 21.41,27.1 36.65,37.92 -2.49,6.59 -8.88,24.17 -15.39,47.93 -23,-20.36 -55.46,-43.36 -93.22,-53.65 z m 52.23,238.92 q -5.16,1.27 -9.36,2.4 v 0 c 5.82,-13.14 7.09,-31.56 2.46,-51.14 a 94.23,94.23 0 0 0 -14.3,-32.66 88.68,88.68 0 0 0 12.53,1.23 141.07,141.07 0 0 1 8.17,24.57 c 4.88,20.94 5.06,41.44 0.5,55.59 z M 170.48,674 c -6.72,1.58 -14.42,-1.81 -21.69,-9.56 -8,-8.52 -14.22,-21 -17.56,-35.14 -4,-16.92 -3,-33.92 2.19,-45.18 4.58,11.72 16.1,16.8 16.7,17.07 a 5.24,5.24 0 0 0 6.78,-7.1 c -5.31,-11 -5,-18.09 -4,-22.38 a 24.29,24.29 0 0 1 9.55,4.5 v 0 l 0.11,0.08 a 5,5 0 0 0 1.08,0.84 v 0 0 c 9.46,7.62 17.86,22.13 21.91,39.3 5.39,22.81 1.66,44.7 -8,53.66 v 0 a 0.1,0.1 0 0 1 -0.05,0 l -0.25,0.23 -0.19,0.16 -0.07,0.08 A 15.48,15.48 0 0 1 170.48,674 Z M 584.71,570.26 c 3.63,0.6 7.36,1 10.83,1.32 v 0 c -10.47,9.92 -19.88,25.21 -26.18,43.65 -7.53,22.07 -8.63,43.2 -4.14,58.33 v 0 q -3.29,-1 -6.6,-2 c -5.36,-14.12 -3.78,-37.73 4.22,-61.19 5.41,-15.83 13.16,-29.96 21.87,-40.11 z m 26.42,25.43 a 5.24,5.24 0 0 0 6.45,7.5 c 0.63,-0.25 12.79,-5.14 18.84,-17.75 3.6,13.17 2.14,32.4 -4.28,51.22 -11.7,34.26 -33.22,52.6 -46,48.24 a 14.36,14.36 0 0 1 -6.94,-5.56 l -0.06,-0.09 -0.23,-0.33 c -7.22,-10.73 -8.78,-33.5 0.36,-60.3 9.73,-28.49 26.85,-46.23 39.23,-48.61 0.37,4.99 -0.25,13.29 -7.37,25.68 z m -84.65,-52.24 a 5.24,5.24 0 0 0 1.22,7.31 5.18,5.18 0 0 0 3,1 5.25,5.25 0 0 0 4.27,-2.19 c 0.12,-0.17 3,-4.14 8.22,-10.36 3.46,13.52 13.8,23.31 30.14,28.43 -8.19,10.68 -15.32,24.36 -20.45,39.4 -7.69,22.52 -9.83,44.87 -6.19,61.2 a 703.8,703.8 0 0 0 -332.47,-8.11 c 3.41,-15.37 2.78,-35.27 -1.94,-55.28 a 155,155 0 0 0 -7.38,-23.12 v 0 c 13.67,-2.78 31.28,-12.66 36.18,-44.27 a 544.44,544.44 0 0 1 19.36,-80.51 l 0.83,-2.59 c 0.25,-0.75 0.48,-1.47 0.72,-2.2 2.35,-7.15 4.36,-12.76 5.71,-16.43 v 0 a 200,200 0 0 0 32.61,16.12 273.88,273.88 0 0 0 80,17.67 q 14,0.83 27.19,0.82 c 26.31,0 50.44,-2.42 72.17,-7.23 -1.7,1.72 -2.65,2.78 -2.8,2.94 a 5.240229003,5.240229003 0 0 0 7.8,7 c 0.56,-0.63 55.71,-61.08 131.93,-70.85 -0.37,7.84 2.2,16.15 7.61,24.19 5.71,8.5 14.14,16 24.26,21.6 0.52,0.3 1.06,0.59 1.59,0.87 l 0.77,0.42 c -35.4,11 -65.25,33.26 -85,51.22 -24.4,22.15 -38.75,42.11 -39.35,42.95 z m 171.09,-96.27 c -8.65,1.72 -18.48,1.07 -28.3,-1.8 h -0.1 l -0.31,-0.1 c -1,-0.3 -2.07,-0.64 -3.1,-1 l -0.18,-0.07 c -0.2,-0.06 -0.41,-0.14 -0.62,-0.22 -1.06,-0.38 -2.12,-0.78 -3.17,-1.21 l -0.17,-0.06 c -0.83,-0.35 -1.65,-0.7 -2.45,-1.07 l -0.47,-0.22 c -0.74,-0.35 -1.48,-0.7 -2.21,-1.07 l -1.14,-0.59 c -0.17,-0.08 -0.34,-0.18 -0.5,-0.27 -0.43,-0.23 -0.85,-0.45 -1.26,-0.69 l -0.6,-0.34 -0.72,-0.43 a 66.86,66.86 0 0 1 -5.73,-3.79 l -0.2,-0.14 -0.7,-0.52 c -0.85,-0.65 -1.67,-1.31 -2.48,-2 l -0.1,-0.09 c -0.31,-0.25 -0.62,-0.52 -0.92,-0.79 l -0.27,-0.24 c -0.37,-0.33 -0.74,-0.66 -1.1,-1 l -0.65,-0.62 -0.74,-0.72 c -0.22,-0.21 -0.42,-0.43 -0.63,-0.64 -0.21,-0.21 -0.52,-0.53 -0.77,-0.8 l -0.18,-0.2 q -0.56,-0.6 -1.08,-1.2 c -0.69,-0.79 -1.34,-1.59 -2,-2.4 -0.09,-0.12 -0.19,-0.24 -0.28,-0.37 -4.22,-5.62 -6.81,-11.59 -7.25,-17.23 a 111.41,111.41 0 0 0 42.81,28.54 94.21,94.21 0 0 0 32.2,5.44 114.57,114.57 0 0 0 12.11,-0.65 c -3.78,4.16 -9.51,7.13 -16.74,8.56 z"
       id="path8" />
  </g>
  <text
     xml:space="preserve"
     style="font-style:normal;font-variant:normal;font-weight:normal;font-stretch:normal;font-size:85.3333px;font-family:'Lilita One';-inkscape-font-specification:'Lilita One, Normal';font-variant-ligatures:normal;font-variant-caps:normal;font-variant-numeric:normal;font-variant-east-asian:normal;fill:#000000;fill-opacity:1;stroke:#000000;stroke-width:1;stroke-dasharray:none"
     id="text10"
     inkscape:label="ThisLittlePiggy"
     transform="translate(0,8)"><textPath
       xlink:href="#path9"
       id="textPath10"><tspan
         id="tspan10"
         style="font-style:normal;font-variant:normal;font-weight:normal;font-stretch:normal;font-size:85.3333px;font-family:'Lilita One';-inkscape-font-specification:'Lilita One, Normal';font-variant-ligatures:normal;font-variant-caps:normal;font-variant-numeric:normal;font-variant-east-asian:normal;fill:#000000;fill-opacity:1">  This Little Piggy</tspan></textPath></text>
  <path
     style="fill:none;stroke:#000000;stroke-width:0;stroke-dasharray:none"
     d="M 88.17808219,117.2945206 138.0821056,92.45533264 A 556.1428302,556.1428302 178.8657042 0 1 613.8073014,83.0360769 l 76.2543425,34.2584436"
     id="path9-4"
     inkscape:original-d="M 88.17808219,117.2945206 373.7157534,-24.82876712 690.0616439,117.2945205"
     inkscape:path-effect="#path-effect9-8"
     transform="matrix(1,0,0,-1,24.04211037,876.7477244)"
     sodipodi:nodetypes="ccc"
     inkscape:label="bottomPath" />
  <path
     style="fill:none;stroke:#000000;stroke-width:0;stroke-dasharray:none"
     d="M 94.17808219,117.2945206 157.8931396,86.87157847 a 550.7009328,550.7009328 0.0218165715 0 1 474.9560504,0.1808495 l 63.2124539,30.24209253"
     id="path9"
     sodipodi:nodetypes="ccc"
     inkscape:original-d="M 94.17808219,117.2945206 395.4143835,-26.54109589 696.0616439,117.2945205"
     inkscape:path-effect="#path-effect9"
     inkscape:label="TopPath"
     transform="translate(0,34)" />
  <text
     xml:space="preserve"
     style="font-style:normal;font-variant:normal;font-weight:normal;font-stretch:normal;font-size:85.3333px;font-family:'Lilita One';-inkscape-font-specification:'Lilita One, Normal';font-variant-ligatures:normal;font-variant-caps:normal;font-variant-numeric:normal;font-variant-east-asian:normal;fill:#000000;fill-opacity:1;stroke:#000000;stroke-width:1;stroke-dasharray:none"
     id="text11"
     inkscape:label="soapShop"
     transform="translate(-52,-64)"
     x="251.9203033"
     y="0"><textPath
       xlink:href="#path9-4"
       id="textPath11"
       inkscape:label="textPath11"
       style="font-style:normal;font-variant:normal;font-weight:normal;font-stretch:normal;font-size:85.3333px;font-family:'Lilita One';-inkscape-font-specification:'Lilita One, Normal';font-variant-ligatures:normal;font-variant-caps:normal;font-variant-numeric:normal;font-variant-east-asian:normal;text-align:center;text-anchor:middle;fill:#000000;fill-opacity:1">           Soap Shop</textPath></text>
  <metadata
     id="metadata11">
    <rdf:RDF>
      <cc:Work
         rdf:about="">
        <dc:title>FILE</dc:title>
      </cc:Work>
    </rdf:RDF>
  </metadata>
</svg>
