<svg xmlns="http://www.w3.org/2000/svg" xmlns:xlink="http://www.w3.org/1999/xlink" version="1.1" x="0px" y="0px" viewBox="0 0 100 125" enable-background="new 0 0 100 100" xml:space="preserve"><g><path d="M99.02,58.795c-0.675-2.708-3.016-4.544-5.66-4.753c-1.471-3.332-4.92-5.444-8.622-4.995   c0.063-0.368,0.096-0.74,0.096-1.115c0-3.634-2.958-6.592-6.592-6.592c-0.453,0-0.897,0.043-1.327,0.13   c-1.33-2.974-4.311-4.965-7.621-4.965c-0.563,0-1.114,0.062-1.711,0.199c-1.01-1.507-2.699-2.436-4.543-2.436   c-2.294,0-4.331,1.469-5.128,3.561c-1.444-0.056-2.831,0.328-4.088,1.014c-1.58-1.382-3.864-1.804-5.824-1.097   c-1.238-2.487-3.804-4.127-6.659-4.127c-3.73,0-6.829,2.764-7.354,6.351c-0.678-0.267-1.407-0.409-2.148-0.409   c-2.142,0-4.048,1.123-5.086,2.901c-1.017-0.422-2.091-0.64-3.164-0.64c-3.831,0-7.101,2.612-8.051,6.219   c-3.101-0.133-6.171-0.071-9.212,0.317c-3.463,0.44-5.923,3.617-5.485,7.08c0.353,2.775,2.472,4.874,5.082,5.387v5.349   c0,11.18,8.457,20.412,19.308,21.666v1.745c0,2.122,1.727,3.849,3.849,3.849h2.454c2.122,0,3.849-1.727,3.849-3.849v-1.588h29.219   v1.588c0,2.122,1.727,3.849,3.849,3.849h2.454c2.122,0,3.849-1.727,3.849-3.849v-1.74c10.726-1.225,19.1-10.275,19.289-21.295   c0.12-0.029,0.242-0.048,0.362-0.078C97.794,65.627,99.864,62.184,99.02,58.795z M23.59,44.228c1.086,0,2.139,0.305,3.128,0.907   c0.318,0.195,0.709,0.233,1.056,0.095c0.348-0.134,0.614-0.421,0.721-0.778c0.445-1.487,1.79-2.485,3.345-2.485   c0.944,0,1.853,0.389,2.496,1.067c0.357,0.379,0.913,0.455,1.384,0.231c0.47-0.223,0.74-0.752,0.675-1.267   c-0.04-0.312-0.08-0.61-0.08-0.946c0-2.772,2.255-5.027,5.027-5.027c2.262,0,4.258,1.525,4.853,3.708   c0.102,0.375,0.378,0.677,0.742,0.812c0.365,0.135,0.772,0.085,1.092-0.132c1.465-0.995,3.533-0.699,4.664,0.716   c0.398,0.5,1.117,0.603,1.639,0.228c1.263-0.902,2.783-1.254,4.304-1.038c0.65,0.088,1.26-0.358,1.359-1.009   c0.23-1.502,1.539-2.636,3.045-2.636c1.233,0,2.348,0.751,2.837,1.911c0.243,0.573,0.877,0.867,1.479,0.677   c0.751-0.242,1.348-0.35,1.939-0.35c2.649,0,5.001,1.795,5.721,4.365c0.093,0.332,0.324,0.61,0.635,0.759   c0.312,0.152,0.673,0.16,0.99,0.025c0.494-0.208,1.032-0.314,1.601-0.314c2.308,0,4.186,1.878,4.186,4.186   c0,0.785-0.228,1.562-0.658,2.246c-0.281,0.446-0.238,1.022,0.105,1.422c0.343,0.403,0.91,0.532,1.391,0.322   c3.014-1.296,6.069-0.066,7.543,2.377c-18.756,4.519-35.152,1.006-51.031-2.41c-7.5-1.615-14.732-3.161-21.784-3.71   C18.821,45.862,21.031,44.228,23.59,44.228z M32.978,89.585c0,0.809-0.634,1.444-1.444,1.444h-2.454   c-0.796,0-1.444-0.647-1.444-1.444v-1.594c0.037,0,0.073,0.006,0.11,0.006h5.23V89.585z M72.349,89.585   c0,0.809-0.634,1.444-1.444,1.444h-2.454c-0.796,0-1.444-0.647-1.444-1.444v-1.588h5.264c0.026,0,0.051-0.004,0.076-0.004V89.585z    M72.273,85.591H27.748C17.04,85.591,8.33,76.88,8.33,66.174V60.89c8.457-0.987,17.874,1.03,28.813,3.387   c10.534,2.267,22.472,4.836,35.351,4.836c6.61,0,12.89-0.697,19.118-2.037C91.136,77.362,82.658,85.591,72.273,85.591z    M93.824,64.136c-6.954,1.73-13.931,2.571-21.33,2.571c-12.624,0-23.92-2.431-34.899-4.795c-9.088-1.957-17.175-3.699-24.667-3.699   c-1.802,0-3.57,0.101-5.307,0.323c-2.155,0.274-4.119-1.256-4.392-3.402c-0.273-2.148,1.254-4.118,3.402-4.391   c10.314-1.311,21.16,1.023,32.669,3.503c16.273,3.499,33.101,7.119,52.627,2.268c0.211-0.053,0.421-0.074,0.631-0.092h0   c0.003,0,0.006-0.001,0.008-0.001c1.877-0.151,3.65,1.068,4.12,2.955C97.209,61.478,95.925,63.613,93.824,64.136z"/><path d="M26.696,39.793c5.482,0,9.942-4.46,9.942-9.942s-4.46-9.94-9.942-9.94s-9.94,4.459-9.94,9.94S21.214,39.793,26.696,39.793z    M26.696,22.316c4.156,0,7.536,3.38,7.536,7.535c0,4.156-3.38,7.536-7.536,7.536c-4.154,0-7.535-3.38-7.535-7.536   C19.161,25.697,22.541,22.316,26.696,22.316z"/><path d="M23.247,29.851c0-1.902,1.547-3.449,3.449-3.449c0.665,0,1.203-0.538,1.203-1.203s-0.538-1.203-1.203-1.203   c-3.228,0-5.854,2.626-5.854,5.854c0,0.665,0.538,1.203,1.203,1.203S23.247,30.516,23.247,29.851z"/><path d="M45.704,29.219c0,4.342,3.533,7.876,7.876,7.876s7.874-3.533,7.874-7.876s-3.532-7.874-7.874-7.874   S45.704,24.877,45.704,29.219z M53.579,23.75c3.015,0,5.469,2.454,5.469,5.469c0,3.016-2.454,5.47-5.469,5.47   c-3.016,0-5.47-2.454-5.47-5.47C48.109,26.204,50.563,23.75,53.579,23.75z"/><path d="M51.23,29.219c0-1.294,1.054-2.348,2.349-2.348c0.665,0,1.203-0.538,1.203-1.203s-0.538-1.203-1.203-1.203   c-2.622,0-4.755,2.132-4.755,4.754c0,0.665,0.538,1.203,1.203,1.203S51.23,29.884,51.23,29.219z"/><path d="M46.907,50.365c0.665,0,1.203-0.538,1.203-1.203c0-1.296,1.054-2.349,2.349-2.349c0.665,0,1.203-0.538,1.203-1.203   s-0.538-1.203-1.203-1.203c-2.622,0-4.755,2.133-4.755,4.755C45.704,49.827,46.242,50.365,46.907,50.365z"/><path d="M65.162,47.607c0.568-0.262,1.206-0.288,1.796-0.068c0.588,0.217,1.056,0.652,1.318,1.222   c0.203,0.442,0.639,0.701,1.095,0.701c0.168,0,0.338-0.035,0.5-0.109c0.604-0.277,0.869-0.991,0.592-1.595   c-0.531-1.155-1.479-2.033-2.67-2.475c-1.191-0.439-2.483-0.391-3.637,0.14c-0.604,0.277-0.868,0.991-0.59,1.595   C63.844,47.62,64.555,47.887,65.162,47.607z"/><path d="M41.129,22.316c4.342,0,7.876-3.533,7.876-7.876s-3.533-7.874-7.876-7.874s-7.874,3.532-7.874,7.874   S36.786,22.316,41.129,22.316z M41.129,8.972c3.016,0,5.47,2.454,5.47,5.469c0,3.016-2.454,5.47-5.47,5.47   c-3.015,0-5.469-2.454-5.469-5.47C35.66,11.426,38.114,8.972,41.129,8.972z"/><path d="M38.78,14.441c0-1.296,1.054-2.349,2.349-2.349c0.665,0,1.203-0.538,1.203-1.203s-0.538-1.203-1.203-1.203   c-2.622,0-4.755,2.133-4.755,4.755c0,0.665,0.538,1.203,1.203,1.203S38.78,15.105,38.78,14.441z"/></g><text x="0" y="115" fill="#000000" font-size="5px" font-weight="bold" font-family="'Helvetica Neue', Helvetica, Arial-Unicode, Arial, Sans-serif">Created by MUHAMAD KHOTIBUL UMAM</text><text x="0" y="120" fill="#000000" font-size="5px" font-weight="bold" font-family="'Helvetica Neue', Helvetica, Arial-Unicode, Arial, Sans-serif">from the Noun Project</text></svg>